<mxfile host="Electron" agent="Mozilla/5.0 (Windows NT 10.0; Win64; x64) AppleWebKit/537.36 (KHTML, like Gecko) draw.io/27.0.2 Chrome/134.0.6998.205 Electron/35.3.0 Safari/537.36" version="27.0.2">
  <diagram name="Page-1" id="U5NtGZiyekHBoTBBQOQD">
    <mxGraphModel dx="908" dy="645" grid="1" gridSize="10" guides="1" tooltips="1" connect="1" arrows="1" fold="1" page="1" pageScale="1" pageWidth="850" pageHeight="1100" math="0" shadow="0">
      <root>
        <mxCell id="0" />
        <mxCell id="1" parent="0" />
        <mxCell id="MkNmEWkXkaIxQlCllt7I-1" value="" style="group" vertex="1" connectable="0" parent="1">
          <mxGeometry x="120" y="155" width="100" height="100" as="geometry" />
        </mxCell>
        <mxCell id="MkNmEWkXkaIxQlCllt7I-2" value="" style="group;fontFamily=Cascadia Code;" vertex="1" connectable="0" parent="MkNmEWkXkaIxQlCllt7I-1">
          <mxGeometry width="100" height="80" as="geometry" />
        </mxCell>
        <mxCell id="MkNmEWkXkaIxQlCllt7I-3" value="&lt;font style=&quot;font-size: 30px; color: light-dark(rgb(51, 51, 51), rgb(51, 51, 51));&quot; face=&quot;Cascadia Code&quot;&gt;1&lt;/font&gt;" style="rounded=0;whiteSpace=wrap;html=1;fillColor=#DFEAF2;" vertex="1" parent="MkNmEWkXkaIxQlCllt7I-2">
          <mxGeometry width="80" height="80" as="geometry" />
        </mxCell>
        <mxCell id="MkNmEWkXkaIxQlCllt7I-4" value="1030" style="rounded=0;fillColor=#DFEAF2;textDirection=vertical-rl;rotation=-180;labelPosition=center;verticalLabelPosition=middle;align=center;verticalAlign=middle;labelBackgroundColor=none;labelBorderColor=none;textShadow=0;html=1;whiteSpace=wrap;spacingLeft=0;spacingRight=2;fontFamily=Cascadia Code;fontColor=light-dark(#333333,#333333);fontSize=17;" vertex="1" parent="MkNmEWkXkaIxQlCllt7I-2">
          <mxGeometry x="80" width="20" height="80" as="geometry" />
        </mxCell>
        <mxCell id="MkNmEWkXkaIxQlCllt7I-5" value="&lt;font style=&quot;font-size: 17px;&quot;&gt;1043&lt;/font&gt;" style="text;html=1;align=center;verticalAlign=middle;whiteSpace=wrap;rounded=0;fontFamily=Cascadia Code;fontColor=light-dark(#333333,#333333);fontSize=18;" vertex="1" parent="MkNmEWkXkaIxQlCllt7I-1">
          <mxGeometry y="80" width="80" height="20" as="geometry" />
        </mxCell>
        <mxCell id="MkNmEWkXkaIxQlCllt7I-6" value="" style="group" vertex="1" connectable="0" parent="1">
          <mxGeometry x="280" y="155" width="100" height="100" as="geometry" />
        </mxCell>
        <mxCell id="MkNmEWkXkaIxQlCllt7I-7" value="" style="group;fontFamily=Cascadia Code;" vertex="1" connectable="0" parent="MkNmEWkXkaIxQlCllt7I-6">
          <mxGeometry width="100" height="80" as="geometry" />
        </mxCell>
        <mxCell id="MkNmEWkXkaIxQlCllt7I-8" value="&lt;font style=&quot;font-size: 30px; color: light-dark(rgb(51, 51, 51), rgb(51, 51, 51));&quot; face=&quot;Cascadia Code&quot;&gt;2&lt;/font&gt;" style="rounded=0;whiteSpace=wrap;html=1;fillColor=#DFEAF2;" vertex="1" parent="MkNmEWkXkaIxQlCllt7I-7">
          <mxGeometry width="80" height="80" as="geometry" />
        </mxCell>
        <mxCell id="MkNmEWkXkaIxQlCllt7I-9" value="1019" style="rounded=0;fillColor=#DFEAF2;textDirection=vertical-rl;rotation=-180;labelPosition=center;verticalLabelPosition=middle;align=center;verticalAlign=middle;labelBackgroundColor=none;labelBorderColor=none;textShadow=0;html=1;whiteSpace=wrap;spacingLeft=0;spacingRight=2;fontFamily=Cascadia Code;fontColor=light-dark(#333333,#333333);fontSize=17;" vertex="1" parent="MkNmEWkXkaIxQlCllt7I-7">
          <mxGeometry x="80" width="20" height="80" as="geometry" />
        </mxCell>
        <mxCell id="MkNmEWkXkaIxQlCllt7I-10" value="&lt;font style=&quot;font-size: 17px;&quot;&gt;1030&lt;/font&gt;" style="text;html=1;align=center;verticalAlign=middle;whiteSpace=wrap;rounded=0;fontFamily=Cascadia Code;fontColor=light-dark(#333333,#333333);fontSize=18;" vertex="1" parent="MkNmEWkXkaIxQlCllt7I-6">
          <mxGeometry y="80" width="80" height="20" as="geometry" />
        </mxCell>
        <mxCell id="MkNmEWkXkaIxQlCllt7I-11" value="" style="group" vertex="1" connectable="0" parent="1">
          <mxGeometry x="440" y="155" width="100" height="100" as="geometry" />
        </mxCell>
        <mxCell id="MkNmEWkXkaIxQlCllt7I-12" value="" style="group;fontFamily=Cascadia Code;" vertex="1" connectable="0" parent="MkNmEWkXkaIxQlCllt7I-11">
          <mxGeometry width="100" height="80" as="geometry" />
        </mxCell>
        <mxCell id="MkNmEWkXkaIxQlCllt7I-13" value="&lt;font style=&quot;font-size: 30px; color: light-dark(rgb(51, 51, 51), rgb(51, 51, 51));&quot; face=&quot;Cascadia Code&quot;&gt;3&lt;/font&gt;" style="rounded=0;whiteSpace=wrap;html=1;fillColor=#DFEAF2;" vertex="1" parent="MkNmEWkXkaIxQlCllt7I-12">
          <mxGeometry width="80" height="80" as="geometry" />
        </mxCell>
        <mxCell id="MkNmEWkXkaIxQlCllt7I-14" value="1033" style="rounded=0;fillColor=#DFEAF2;textDirection=vertical-rl;rotation=-180;labelPosition=center;verticalLabelPosition=middle;align=center;verticalAlign=middle;labelBackgroundColor=none;labelBorderColor=none;textShadow=0;html=1;whiteSpace=wrap;spacingLeft=0;spacingRight=2;fontFamily=Cascadia Code;fontColor=light-dark(#333333,#333333);fontSize=17;" vertex="1" parent="MkNmEWkXkaIxQlCllt7I-12">
          <mxGeometry x="80" width="20" height="80" as="geometry" />
        </mxCell>
        <mxCell id="MkNmEWkXkaIxQlCllt7I-15" value="&lt;font style=&quot;font-size: 17px;&quot;&gt;1019&lt;/font&gt;" style="text;html=1;align=center;verticalAlign=middle;whiteSpace=wrap;rounded=0;fontFamily=Cascadia Code;fontColor=light-dark(#333333,#333333);fontSize=18;" vertex="1" parent="MkNmEWkXkaIxQlCllt7I-11">
          <mxGeometry y="80" width="80" height="20" as="geometry" />
        </mxCell>
        <mxCell id="MkNmEWkXkaIxQlCllt7I-16" value="" style="group" vertex="1" connectable="0" parent="1">
          <mxGeometry x="600" y="155" width="100" height="100" as="geometry" />
        </mxCell>
        <mxCell id="MkNmEWkXkaIxQlCllt7I-17" value="" style="group;fontFamily=Cascadia Code;" vertex="1" connectable="0" parent="MkNmEWkXkaIxQlCllt7I-16">
          <mxGeometry width="100" height="80" as="geometry" />
        </mxCell>
        <mxCell id="MkNmEWkXkaIxQlCllt7I-18" value="&lt;font style=&quot;font-size: 30px; color: light-dark(rgb(51, 51, 51), rgb(51, 51, 51));&quot; face=&quot;Cascadia Code&quot;&gt;4&lt;/font&gt;" style="rounded=0;whiteSpace=wrap;html=1;fillColor=#DFEAF2;" vertex="1" parent="MkNmEWkXkaIxQlCllt7I-17">
          <mxGeometry width="80" height="80" as="geometry" />
        </mxCell>
        <mxCell id="MkNmEWkXkaIxQlCllt7I-19" value="None" style="rounded=0;fillColor=#DFEAF2;textDirection=vertical-rl;rotation=-180;labelPosition=center;verticalLabelPosition=middle;align=center;verticalAlign=middle;labelBackgroundColor=none;labelBorderColor=none;textShadow=0;html=1;whiteSpace=wrap;spacingLeft=0;spacingRight=2;fontFamily=Cascadia Code;fontColor=light-dark(#333333,#333333);fontSize=17;" vertex="1" parent="MkNmEWkXkaIxQlCllt7I-17">
          <mxGeometry x="80" width="20" height="80" as="geometry" />
        </mxCell>
        <mxCell id="MkNmEWkXkaIxQlCllt7I-20" value="&lt;font style=&quot;font-size: 17px;&quot;&gt;1033&lt;/font&gt;" style="text;html=1;align=center;verticalAlign=middle;whiteSpace=wrap;rounded=0;fontFamily=Cascadia Code;fontColor=light-dark(#333333,#333333);fontSize=18;" vertex="1" parent="MkNmEWkXkaIxQlCllt7I-16">
          <mxGeometry y="80" width="80" height="20" as="geometry" />
        </mxCell>
        <mxCell id="MkNmEWkXkaIxQlCllt7I-21" value="" style="endArrow=classic;html=1;rounded=0;curved=1;strokeWidth=2;strokeColor=#333333;" edge="1" parent="1">
          <mxGeometry width="50" height="50" relative="1" as="geometry">
            <mxPoint x="210" y="150" as="sourcePoint" />
            <mxPoint x="290" y="150" as="targetPoint" />
            <Array as="points">
              <mxPoint x="250" y="120" />
            </Array>
          </mxGeometry>
        </mxCell>
        <mxCell id="MkNmEWkXkaIxQlCllt7I-24" value="None" style="rounded=0;fillColor=#DFEAF2;textDirection=vertical-rl;rotation=-180;labelPosition=center;verticalLabelPosition=middle;align=center;verticalAlign=middle;labelBackgroundColor=none;labelBorderColor=none;textShadow=0;html=1;whiteSpace=wrap;spacingLeft=0;spacingRight=2;fontFamily=Cascadia Code;fontColor=light-dark(#333333,#333333);fontSize=17;" vertex="1" parent="1">
          <mxGeometry x="100" y="155" width="20" height="80" as="geometry" />
        </mxCell>
        <mxCell id="MkNmEWkXkaIxQlCllt7I-26" value="1043" style="rounded=0;fillColor=#DFEAF2;textDirection=vertical-rl;rotation=-180;labelPosition=center;verticalLabelPosition=middle;align=center;verticalAlign=middle;labelBackgroundColor=none;labelBorderColor=none;textShadow=0;html=1;whiteSpace=wrap;spacingLeft=0;spacingRight=2;fontFamily=Cascadia Code;fontColor=light-dark(#333333,#333333);fontSize=17;" vertex="1" parent="1">
          <mxGeometry x="260" y="155" width="20" height="80" as="geometry" />
        </mxCell>
        <mxCell id="MkNmEWkXkaIxQlCllt7I-27" value="1030" style="rounded=0;fillColor=#DFEAF2;textDirection=vertical-rl;rotation=-180;labelPosition=center;verticalLabelPosition=middle;align=center;verticalAlign=middle;labelBackgroundColor=none;labelBorderColor=none;textShadow=0;html=1;whiteSpace=wrap;spacingLeft=0;spacingRight=2;fontFamily=Cascadia Code;fontColor=light-dark(#333333,#333333);fontSize=17;" vertex="1" parent="1">
          <mxGeometry x="420" y="155" width="20" height="80" as="geometry" />
        </mxCell>
        <mxCell id="MkNmEWkXkaIxQlCllt7I-28" value="1019" style="rounded=0;fillColor=#DFEAF2;textDirection=vertical-rl;rotation=-180;labelPosition=center;verticalLabelPosition=middle;align=center;verticalAlign=middle;labelBackgroundColor=none;labelBorderColor=none;textShadow=0;html=1;whiteSpace=wrap;spacingLeft=0;spacingRight=2;fontFamily=Cascadia Code;fontColor=light-dark(#333333,#333333);fontSize=17;" vertex="1" parent="1">
          <mxGeometry x="580" y="155" width="20" height="80" as="geometry" />
        </mxCell>
        <mxCell id="MkNmEWkXkaIxQlCllt7I-30" value="" style="endArrow=classic;html=1;rounded=0;curved=1;strokeWidth=2;strokeColor=#333333;" edge="1" parent="1">
          <mxGeometry width="50" height="50" relative="1" as="geometry">
            <mxPoint x="270" y="240" as="sourcePoint" />
            <mxPoint x="190" y="240" as="targetPoint" />
            <Array as="points">
              <mxPoint x="230" y="270" />
            </Array>
          </mxGeometry>
        </mxCell>
        <mxCell id="MkNmEWkXkaIxQlCllt7I-31" value="" style="endArrow=classic;html=1;rounded=0;curved=1;strokeWidth=2;strokeColor=#333333;" edge="1" parent="1">
          <mxGeometry width="50" height="50" relative="1" as="geometry">
            <mxPoint x="370" y="150" as="sourcePoint" />
            <mxPoint x="450" y="150" as="targetPoint" />
            <Array as="points">
              <mxPoint x="410" y="120" />
            </Array>
          </mxGeometry>
        </mxCell>
        <mxCell id="MkNmEWkXkaIxQlCllt7I-32" value="" style="endArrow=classic;html=1;rounded=0;curved=1;strokeWidth=2;strokeColor=#333333;" edge="1" parent="1">
          <mxGeometry width="50" height="50" relative="1" as="geometry">
            <mxPoint x="430" y="240" as="sourcePoint" />
            <mxPoint x="350" y="240" as="targetPoint" />
            <Array as="points">
              <mxPoint x="390" y="270" />
            </Array>
          </mxGeometry>
        </mxCell>
        <mxCell id="MkNmEWkXkaIxQlCllt7I-33" value="" style="endArrow=classic;html=1;rounded=0;curved=1;strokeWidth=2;strokeColor=#333333;" edge="1" parent="1">
          <mxGeometry width="50" height="50" relative="1" as="geometry">
            <mxPoint x="530" y="150" as="sourcePoint" />
            <mxPoint x="610" y="150" as="targetPoint" />
            <Array as="points">
              <mxPoint x="570" y="120" />
            </Array>
          </mxGeometry>
        </mxCell>
        <mxCell id="MkNmEWkXkaIxQlCllt7I-34" value="" style="endArrow=classic;html=1;rounded=0;curved=1;strokeWidth=2;strokeColor=#333333;" edge="1" parent="1">
          <mxGeometry width="50" height="50" relative="1" as="geometry">
            <mxPoint x="590" y="240" as="sourcePoint" />
            <mxPoint x="510" y="240" as="targetPoint" />
            <Array as="points">
              <mxPoint x="550" y="270" />
            </Array>
          </mxGeometry>
        </mxCell>
      </root>
    </mxGraphModel>
  </diagram>
</mxfile>
